<?xml version="1.0" encoding="UTF-8" standalone="no"?>
<!-- Created with Inkscape (http://www.inkscape.org/) -->

<svg
   width="560"
   height="560"
   viewBox="0 0 148.16667 148.16667"
   version="1.1"
   id="svg888"
   inkscape:version="1.1.2 (0a00cf5339, 2022-02-04)"
   sodipodi:docname="spiral.svg"
   xmlns:inkscape="http://www.inkscape.org/namespaces/inkscape"
   xmlns:sodipodi="http://sodipodi.sourceforge.net/DTD/sodipodi-0.dtd"
   xmlns="http://www.w3.org/2000/svg"
   xmlns:svg="http://www.w3.org/2000/svg">
  <sodipodi:namedview
     id="namedview890"
     pagecolor="#ffffff"
     bordercolor="#666666"
     borderopacity="1.0"
     inkscape:pageshadow="2"
     inkscape:pageopacity="0.0"
     inkscape:pagecheckerboard="0"
     inkscape:document-units="mm"
     showgrid="false"
     units="px"
     inkscape:zoom="0.33997698"
     inkscape:cx="-1532.4567"
     inkscape:cy="-960.35914"
     inkscape:window-width="2490"
     inkscape:window-height="1376"
     inkscape:window-x="0"
     inkscape:window-y="0"
     inkscape:window-maximized="1"
     inkscape:current-layer="layer1" />
  <defs
     id="defs885" />
  <g
     inkscape:label="Layer 1"
     inkscape:groupmode="layer"
     id="layer1">
    <path
       style="fill:none;stroke:#a673ec;stroke-width:0.673306px;stroke-linecap:butt;stroke-linejoin:miter;stroke-opacity:1"
       d="m 134.2108,92.098736 c -7.05917,0.366664 -14.19895,-1.578929 -20.09062,-4.901185 -3.06669,-1.729287 -5.75617,-4.181515 -9.1057,-5.600869 -0.79767,-0.338033 -2.41149,0.423757 -3.12226,0 -4.042526,-2.410322 -9.582776,-7.757035 -14.607344,-8.909807 -1.915411,-0.439433 -10.991485,-0.881858 -12.56264,0.699725 -2.183884,2.198371 -3.434955,7.507128 -4.891181,10.019995 -0.04503,0.07794 -3.518767,0 -5.13391,0 -2.567264,0 -6.116467,0.59289 -8.528319,0 -0.614957,-0.151227 -3.483678,-1.086525 -3.828337,-1.352768 -1.249924,-0.965564 -2.689541,-4.558628 -3.181139,-5.047357 -0.879181,-0.874064 -3.484528,-2.955189 -4.685218,-4.173443 -5.283566,-5.360732 1.42048,1.023485 -2.482367,-4.201439 -0.559075,-0.74845 -2.169547,0.330706 -3.140655,0 -3.489392,-1.1882 -1.428275,-1.238072 -4.037976,-2.742895 C 31.33432,63.882714 27.892059,68.6037 21.551788,63.242184"
       id="path29189" />
  </g>
</svg>
