<?xml version="1.0" encoding="UTF-8" standalone="no"?>
<!-- Created with Inkscape (http://www.inkscape.org/) -->

<svg
   width="560"
   height="560"
   viewBox="0 0 148.16667 148.16667"
   version="1.1"
   id="svg888"
   inkscape:version="1.1.2 (0a00cf5339, 2022-02-04)"
   sodipodi:docname="spiral.svg"
   xmlns:inkscape="http://www.inkscape.org/namespaces/inkscape"
   xmlns:sodipodi="http://sodipodi.sourceforge.net/DTD/sodipodi-0.dtd"
   xmlns="http://www.w3.org/2000/svg"
   xmlns:svg="http://www.w3.org/2000/svg">
  <sodipodi:namedview
     id="namedview890"
     pagecolor="#ffffff"
     bordercolor="#666666"
     borderopacity="1.0"
     inkscape:pageshadow="2"
     inkscape:pageopacity="0.0"
     inkscape:pagecheckerboard="0"
     inkscape:document-units="mm"
     showgrid="false"
     units="px"
     inkscape:zoom="0.33997698"
     inkscape:cx="-1533.9274"
     inkscape:cy="-960.35914"
     inkscape:window-width="2490"
     inkscape:window-height="1376"
     inkscape:window-x="0"
     inkscape:window-y="0"
     inkscape:window-maximized="1"
     inkscape:current-layer="layer1" />
  <defs
     id="defs885" />
  <g
     inkscape:label="Layer 1"
     inkscape:groupmode="layer"
     id="layer1">
    <path
       sodipodi:type="spiral"
       style="fill:none;fill-rule:evenodd;stroke:#a673ec;stroke-opacity:1"
       id="path847"
       sodipodi:cx="162.55058"
       sodipodi:cy="192.00386"
       sodipodi:expansion="1"
       sodipodi:revolution="3.2011294"
       sodipodi:radius="155.2171"
       sodipodi:argument="-18.524103"
       sodipodi:t0="0.0029756946"
       transform="matrix(0.52446427,0,0,0.48532369,-16.565447,-23.983294)"
       d="m 162.9786,192.17745 c 6.68453,3.18856 -0.88604,10.77734 -5.15757,11.48775 -11.61621,1.93192 -18.99831,-10.87612 -18.1651,-20.94686 1.47353,-17.8102 20.37648,-27.79825 36.73613,-24.84246 23.89217,4.31673 36.77498,29.97329 31.51982,52.52542 -6.98532,29.97696 -39.60129,45.82354 -68.3147,38.19718 -36.07017,-9.58034 -54.908575,-49.24346 -44.874536,-84.10398 12.137896,-42.16981 58.893466,-64.01465 99.893266,-51.5519 48.27394,14.67388 73.13393,68.54837 58.22925,115.68255 C 235.64883,283.0064 174.63863,310.8872 121.37333,293.53176 60.882482,273.82202 29.976958,205.66475 49.789361,146.27065 72.00619,79.668496 147.31854,45.735441 212.83976,68.009318 285.5545,92.728627 322.51718,175.20194 297.77845,246.849 277.58002,305.34663 221.23316,345.26875 159.69631,347.19472" />
  </g>
</svg>
